<?xml version="1.0" encoding="utf-8"?>
<!-- Generator: Adobe Illustrator 19.2.1, SVG Export Plug-In . SVG Version: 6.00 Build 0)  -->
<svg version="1.1" id="Слой_1" xmlns="http://www.w3.org/2000/svg" xmlns:xlink="http://www.w3.org/1999/xlink" x="0px" y="0px"
	 viewBox="0 0 590.7 203.6" style="enable-background:new 0 0 590.7 203.6;" xml:space="preserve">
<g>
	<rect x="223.5" y="106.2" width="2.4" height="45.6"/>
	<rect x="261.1" y="162" transform="matrix(0.8658 -0.5004 0.5004 0.8658 -43.5554 163.9932)" width="45.6" height="2.4"/>
	<rect x="282.7" y="71.9" transform="matrix(0.5004 -0.8658 0.8658 0.5004 59.8247 293.1761)" width="2.4" height="45.6"/>
	<polygon points="115.7,98.1 115.7,98.1 114.5,98.8 65.3,70.3 65.3,70.3 64.7,70 64.1,70.3 64.1,70.3 64,70.3 62.3,71.3 62.3,71.3 
		14.2,99.1 15.4,101.2 64.7,72.8 65.8,73.4 65.8,73.4 112.2,100.2 112.2,100.2 113.9,101.2 113.9,101.2 113.9,101.2 114.5,101.6 
		115.1,101.2 115.1,101.2 149.1,81.6 147.9,79.5 	"/>
	<rect x="369.4" y="137.4" transform="matrix(0.5876 -0.8092 0.8092 0.5876 45.7471 366.9788)" width="26.9" height="2.4"/>
	<polygon points="383.6,100.7 381.7,102.1 401.2,129 382.4,154.9 384.3,156.3 403.3,130.2 442.9,130.2 442.9,127.8 403.3,127.8 	"/>
	<path d="M352.1,89.1l-0.7-2.3l-37.2,12.1l-49.4-28.5l0,0l-0.6-0.3l-0.6,0.3l0,0l-49.3,28.5L181.7,80l-1.2,2.1l32.6,18.8v54.9v2v0.7
		l2.3,1.3l0,0l48.2,27.8l0,0l0.6,0.3l0.6-0.3l0,0l49.4-28.5l37.2,12.1l0.7-2.3l-36.9-12V101L352.1,89.1z M215.5,100.9l47.6-27.5l0,0
		l1.1-0.6l1.1,0.6l0,0l47.6,27.5v56.2l-47.6,27.5l0,0l-1.1,0.6l-1.1-0.6l0,0l-47.6-27.5v-1.3V100.9z"/>
	<polygon points="476.3,44.2 474.2,45.4 493,77.9 491.1,77.9 489.1,77.9 488.4,77.9 487.1,80.2 487.1,80.2 486.1,81.9 467.3,49.3 
		465.3,50.5 484.7,84.3 471,108 473.1,109.2 489.8,80.3 491.1,80.3 526.6,80.3 526.6,77.9 495.8,77.9 	"/>
	<rect x="548.3" y="43.7" transform="matrix(0.5004 -0.8658 0.8658 0.5004 244.1098 512.8357)" width="36.2" height="2.4"/>
	<path d="M171.3,70.7c-2.2-1.1-6.1-2-6.1-2c-2.8-0.6-4.3-1.1-4.3-1.1c-1.5-0.6-2.2-1.4-2.2-1.4c-0.7-0.8-0.7-2.2-0.7-2.2
		c0-1.4,0.8-2.4,0.8-2.4c0.8-1,2.2-1.5,2.2-1.5c1.4-0.6,3.3-0.6,3.3-0.6c2.8,0,4.5,1.4,4.5,1.4c1.6,1.3,2.3,4.4,2.3,4.4h0.1l3.6-0.8
		c-0.3-2.6-1.7-4.4-1.7-4.4c-1.4-1.8-3.6-2.8-3.6-2.8c-2.3-1-5.2-1-5.2-1c-2.8,0-5,1-5,1c-2.3,1-3.6,2.8-3.6,2.8
		c-1.3,1.7-1.3,3.9-1.3,3.9c0,2,0.7,3.4,0.7,3.4c0.6,1.4,2.3,2.6,2.3,2.6c1.6,1.1,4.6,1.9,4.6,1.9c0.7,0.2,2.3,0.6,2.3,0.6
		c2.8,0.6,4.2,1.1,4.2,1.1c1.7,0.6,2.6,1.6,2.6,1.6c0.9,1,0.9,2.8,0.9,2.8c0,1.3-0.9,2.4-0.9,2.4c-0.9,1.1-2.5,1.7-2.5,1.7
		c-1.6,0.6-3.4,0.6-3.4,0.6c-3.6,0-5.6-1.8-5.6-1.8c-2-1.8-2.4-5.3-2.4-5.3l-3.7,0.9c0.6,4.6,3.7,7,3.7,7c3.1,2.4,8.2,2.4,8.2,2.4
		c3,0,5.3-1.1,5.3-1.1c2.4-1.1,3.7-3.1,3.7-3.1c1.4-2,1.4-4.4,1.4-4.4c0-2.4-1-4-1-4C173.5,71.7,171.3,70.7,171.3,70.7z"/>
	<polygon points="376.2,183.1 376.1,183.1 361.8,160.8 357.9,160.8 357.9,189.4 361.5,189.4 361.5,167.1 361.5,167.1 375.9,189.4 
		379.8,189.4 379.8,160.8 376.2,160.8 	"/>
	<polygon points="361.5,73.9 361.5,73.9 375.9,96.2 379.8,96.2 379.8,67.6 376.2,67.6 376.2,89.9 376.1,89.9 361.8,67.6 357.9,67.6 
		357.9,96.2 361.5,96.2 	"/>
	<polygon points="361.8,50.1 375.9,50.1 375.9,63.6 379.7,63.6 379.7,34.9 375.9,34.9 375.9,46.7 361.8,46.7 361.8,34.9 358,34.9 
		358,63.6 361.8,63.6 	"/>
	<polygon points="467.7,136.5 467.6,136.5 453.2,114.2 449.3,114.2 449.3,142.8 452.9,142.8 452.9,120.5 453,120.5 467.4,142.8 
		471.3,142.8 471.3,114.2 467.7,114.2 	"/>
	<polygon points="467.3,158.6 453.3,158.6 453.3,146.8 449.5,146.8 449.5,175.5 453.3,175.5 453.3,162 467.3,162 467.3,175.5 
		471.1,175.5 471.1,146.8 467.3,146.8 	"/>
	<path d="M553.7,65.9c-3.1-1.8-7-1.8-7-1.8c-3.9,0-7,1.8-7,1.8c-3.2,1.8-4.9,5.2-4.9,5.2c-1.8,3.4-1.8,7.8-1.8,7.8
		c0,4.3,1.8,7.7,1.8,7.7c1.8,3.4,4.9,5.2,4.9,5.2c3.2,1.8,7.1,1.8,7.1,1.8c3.9,0,7-1.8,7-1.8c3.1-1.8,4.9-5.2,4.9-5.2
		c1.8-3.4,1.8-7.8,1.8-7.8c0-4.5-1.8-7.8-1.8-7.8C556.9,67.7,553.7,65.9,553.7,65.9z M555.2,85.1c-1.2,2.6-3.5,4-3.5,4
		c-2.2,1.4-5,1.4-5,1.4c-2.8,0-5-1.4-5-1.4c-2.2-1.4-3.5-4-3.5-4c-1.2-2.6-1.2-6.1-1.2-6.1c0-3.6,1.2-6.3,1.2-6.3
		c1.2-2.6,3.5-4,3.5-4c2.2-1.4,5.1-1.4,5.1-1.4c2.9,0,5.1,1.4,5.1,1.4c2.2,1.4,3.5,4,3.5,4c1.2,2.6,1.2,6.2,1.2,6.2
		C556.5,82.5,555.2,85.1,555.2,85.1z"/>
	<path d="M453.3,41.9c3.2,1.9,7.1,1.9,7.1,1.9c3.9,0,7-1.8,7-1.8c3.1-1.8,4.9-5.2,4.9-5.2C474,33.4,474,29,474,29
		c0-4.5-1.8-7.8-1.8-7.8c-1.8-3.4-4.9-5.2-4.9-5.2c-3.1-1.8-7-1.8-7-1.8c-3.9,0-7,1.8-7,1.8c-3.2,1.8-4.9,5.2-4.9,5.2
		c-1.8,3.4-1.8,7.8-1.8,7.8c0,4.3,1.8,7.7,1.8,7.7C450.1,40.1,453.3,41.9,453.3,41.9z M451.7,22.8c1.2-2.6,3.5-4,3.5-4
		c2.2-1.4,5.1-1.4,5.1-1.4c2.9,0,5.1,1.4,5.1,1.4c2.2,1.4,3.5,4,3.5,4c1.2,2.6,1.2,6.2,1.2,6.2c0,3.6-1.2,6.2-1.2,6.2
		c-1.2,2.6-3.5,4-3.5,4c-2.2,1.4-5,1.4-5,1.4c-2.8,0-5-1.4-5-1.4c-2.2-1.4-3.5-4-3.5-4c-1.2-2.6-1.2-6.1-1.2-6.1
		C450.5,25.5,451.7,22.8,451.7,22.8z"/>
</g>
</svg>
