<?xml version="1.0" encoding="UTF-8" standalone="no"?><!DOCTYPE svg PUBLIC "-//W3C//DTD SVG 1.1//EN" "http://www.w3.org/Graphics/SVG/1.1/DTD/svg11.dtd"><svg width="100%" height="100%" viewBox="0 0 3933 3873" version="1.1" xmlns="http://www.w3.org/2000/svg" xmlns:xlink="http://www.w3.org/1999/xlink" xml:space="preserve" xmlns:serif="http://www.serif.com/" style="fill-rule:evenodd;clip-rule:evenodd;stroke-linecap:round;stroke-linejoin:round;stroke-miterlimit:1.5;"><ellipse cx="1966.09" cy="1936.18" rx="1952.55" ry="1922.63" style="fill:#fff;fill-opacity:0.388235;stroke:#000;stroke-width:27.08px;"/><rect x="435.718" y="511.828" width="3036.84" height="3347.21" style="fill:#fff;fill-opacity:0.164706;stroke:#000;stroke-width:27.08px;"/><path d="M1574.14,1176.42c19.339,11.812 19.399,11.933 37.741,30.461c24.258,24.507 47.027,63.169 52.296,64.305c2.359,0.509 -24.586,-38.624 -52.296,-64.305c-19.753,-18.306 -39.714,-31.006 -37.741,-30.461c4.679,1.292 8.448,8.136 17.886,10.519c6.022,1.521 13.311,3.277 19.855,5.648c16.057,5.819 32.027,14.86 39.757,21.335c13.525,11.326 21.958,33.672 31.956,52.674c16.273,30.931 -38.577,-70.043 -36.441,-65.951c18.866,36.147 34.496,69.568 51.681,99.019c24.382,41.788 16.747,55.133 10.862,105.349c-7.097,-1.921 -14.507,-54.017 -31.673,-81.096c-15.292,-24.124 -40.033,-35.375 -46.733,-37.504c-5.181,-1.646 -141.535,5.35 -189.214,0c-83.993,-9.425 -173.38,-24.229 -262.164,-27.888c-35.64,-1.469 -68.876,0.443 -104.226,0c-89.08,-1.116 -276.683,-17.893 -293.309,-17.343c-28.71,0.949 -22.276,14.48 -60.073,34.216c-12.925,6.748 -28.754,5.333 -49.069,6.026c-6.168,0.211 -17.675,-0.829 -25.182,0c-43.987,4.862 -52.157,17.492 -70.324,22.427c-5.167,1.403 -18.259,6.039 -25.042,5.131c-7.612,-1.019 -3.669,-7.203 -2.907,-9.318c3.145,-8.718 37.589,-17.483 58.307,-28.478c4.787,-2.541 9.532,-10.724 12.314,-12.661c3.114,-2.167 -5.559,4.778 -14.015,5.516c-1.607,0.14 -3.231,0.268 -4.799,0.36c-8.646,0.507 -21.919,1.608 -38.733,2.195c-6.718,0.235 -23.074,7.655 -37.002,14.828c-9.721,5.007 -37.426,12.007 -30.92,-6.026c1.29,-3.577 6.231,-1.718 10.843,-4.212c8.38,-4.532 27.456,-17.273 46.912,-23.77c18.707,-6.246 38.037,-6.342 35.261,-6.234c-4.175,0.162 -9.071,-0.67 -25.094,0c-3.628,0.151 -14.858,-0.444 -18.663,0c-20.995,2.449 -45.683,11.517 -55.221,17.343c-8.697,5.313 -21.641,1.914 -24.646,0c-7.471,-4.758 -1.093,-8.344 7.401,-14.631c2.963,-2.193 10.142,-4.643 18.739,-7.279c10.187,-3.125 22.364,-10.381 31.874,-13.915c3.97,-1.474 28.578,-0.625 30.349,-1.7c2.735,-1.658 -22.209,0 -30.349,0c-18.84,0 -43.528,11.42 -53.949,1.7c-1.226,-1.144 0.162,-5.755 6.87,-8.778c7.159,-3.227 29.228,-7.196 43.894,-10.055c7.327,-1.429 11.895,-1.803 13.654,-3.222c6.18,-4.987 2.614,-7.547 5.574,-8.058c15.272,-2.634 55.264,-4.321 64.089,-5.648c7.884,-1.185 22.883,-8.317 52.364,-10.519c35.532,-2.653 106.2,0.126 112.46,0c23.007,-0.464 42.05,-3.389 62.53,-4.87c39.612,-2.863 169.296,-15.136 241.067,-18.35c55.49,-2.484 171.829,-1.924 213.615,-4.985c114.945,-8.421 139.734,-10.216 164.423,-12.046c5.859,-0.434 102.352,-11.432 109.578,-9.981c8.622,1.731 -119.925,9.806 -109.578,9.981c30.244,0.512 104.757,27.759 125.211,40.251Z" style="fill:#b79c69;fill-opacity:0.92549;stroke:#080700;stroke-width:8.33px;"/><path d="M2387.2,1150.16c-12.473,-5.183 -30.92,-29.357 -77.452,-37.704c-41.696,-7.481 -108.849,-6.404 -159.819,-12.204c-30.392,-3.458 -48.497,-9.133 -50.471,-14.625" style="fill:none;stroke:#080700;stroke-width:8.33px;"/><path d="M2253.72,1268.89c-22.053,24.18 -22.536,57.662 -15.576,41.494c5.671,-13.175 26.753,-17.091 40.955,-21.677c27.797,-8.975 98.731,-9.182 146.64,-6.994c64.147,2.928 213.347,-25.792 302.497,-32.003c49.827,-3.471 93.792,11.268 106.467,11.109c89.08,-1.116 277.475,-22.651 293.309,-17.343c25.54,8.562 2.01,5.678 39.807,25.414c16.849,8.798 49.884,14.407 82.259,12.823c54.71,3.117 68.081,23.976 86.307,28.671c11.953,3.079 22.653,-2.309 21.316,-6.204c-3.677,-10.71 -44.186,-25.071 -58.867,-35.29c-2.685,-1.869 -24.978,-18.383 -4.224,-8.071c3.429,1.704 42.167,4.731 52.925,5.106c11.405,0.399 41.48,17.04 52.349,22.782c4.462,2.357 22.051,1.46 21.534,-4.989c-0.408,-5.09 -51.568,-26.666 -59.119,-34.008c-0.354,-0.344 -12.335,-6.116 -14.764,-6.234c-84.764,-4.137 16.683,-2.829 17.649,-2.966c17.128,-2.428 55.796,17.275 69.945,20.309c8.958,1.921 15.062,-2.165 7.541,-11.109c-6.416,-7.63 -48.423,-18.893 -58.023,-24.715c-2.025,-1.229 -71.165,-12.26 -48.262,-8.779c9.73,1.479 35.676,3.045 58.48,5.528c18.686,2.035 35.079,5.487 40.264,3.251c1.522,-0.657 8.696,-5.756 1.988,-8.779c-7.338,-3.307 -19.218,-6.281 -33.837,-9.145c-6.768,-1.325 -19.176,-7.999 -28.659,-5.569c-1.533,0.393 -6.053,5.591 -2.613,2.413c3.04,-2.81 1.433,-8.786 0,-9.034c-15.273,-2.634 -51.411,-6.014 -60.236,-7.341c-7.884,-1.185 -37.282,-12.032 -66.764,-14.234c-35.532,-2.653 -110.736,5.534 -116.996,5.408c-23.007,-0.464 -112.03,-10.673 -113.843,-10.991c-8.983,-1.573 -107.696,-14 -179.466,-17.214c-55.49,-2.485 -173.895,-4.787 -215.783,-4.718c-117.196,0.191 -169.776,-6.126 -176.402,-7.207c-24.915,-4.061 -69.162,19.635 -106.552,40.13c-54.647,29.956 -70.977,77.821 -82.246,90.176Z" style="fill:#b79c69;fill-opacity:0.996078;stroke:#080700;stroke-width:8.33px;"/><path d="M1831.89,1077.14c-6.447,4.468 -31.553,17.345 -44.148,19.804c-45.721,8.928 -116.551,3.273 -176.095,14.934c-38.081,7.457 -116.654,47.25 -129.756,59.761" style="fill:none;stroke:#080700;stroke-width:8.33px;"/><path d="M1717,2713.32c51.152,-88.527 66.822,-114.229 103.885,-179.79c56.181,-99.378 120.682,-261.532 120.682,-261.532" style="fill:none;stroke:#000;stroke-width:8.33px;"/><path d="M2192.6,2706.98c-51.153,-88.528 -66.822,-114.229 -103.885,-179.79c-56.181,-99.378 -120.682,-261.532 -120.682,-261.532" style="fill:none;stroke:#000;stroke-width:8.33px;"/><path d="M1882.75,955.042c0,-4.703 -14.692,-13.15 -28.906,-37.448c-16.952,-28.978 -9.644,-49.058 -18.885,-77.802c-1.337,-4.157 -9.645,-45.901 -6.507,-27.018c1.841,11.076 -5.603,28.788 -10.551,23.771c-10.681,-10.829 -10.864,-13.796 -11.199,-31.978c-0.439,-23.87 -5.759,-44.881 0,-48.61c11.214,-7.261 17.447,11.719 15.18,-5.762c-0.576,-4.447 15.148,30.566 15.406,28.659c0.142,-1.047 -15.581,-28.514 -15.406,-29.935c1.594,-12.888 4.394,-39.145 5.034,-41.959c17.045,-74.872 52.373,-126.636 120.593,-134.23c20.738,-2.309 50.764,-0.922 76.91,13.076c19.085,10.218 34.963,28.962 49.287,48.956c15.664,21.865 24.728,56.169 25.992,87.339c0.204,5.027 0.891,19.457 -0.912,28.039c-0.441,2.098 -20.642,32.573 -21.529,34.638c-4.55,10.598 19.841,-34.093 21.529,-34.583c3.707,-1.075 13.401,2.037 14.705,5.762c4.042,11.555 1.292,24.782 0,36.661c-0.796,7.312 0.195,13.645 0,20.156c-3.166,12.327 -6.628,16.326 -13.793,27.018c-10.837,16.174 -17.17,-18.706 -17.226,-17.926c-2.429,33.31 -4.794,67.459 -13.078,91.784c-5.049,14.828 -16.089,22.233 -21.788,32.426c-8.718,15.595 -7,68.731 9.563,103.755c4.685,9.906 28.839,31.326 38.516,34.877c19.735,7.244 51.242,-12.519 80.259,-30.225c16.833,-10.271 44.263,-30.365 119.975,-32.44c5.54,-0.152 47.896,-14.559 108.232,-39.285c55.588,-22.78 126.148,-54.924 203.789,-79.104c14.354,-4.47 61.832,-39.924 131.858,-64.306c51.591,-17.963 109.766,-38.3 167.505,-54.57c52.658,-14.839 141.728,-56.665 181.897,-64.883c3.561,-0.728 25.23,-3.071 44.811,-20.052c10.605,-9.198 25.481,-22.647 41.996,-33.935c7.719,-5.276 16.412,-8.209 24.073,-13.42c21.811,-14.837 41.168,-29.038 57.484,-32.822c9.438,-2.189 9.155,8.468 0,20.225c-9.156,11.757 -10.532,24.128 0,20.078c13.111,-5.042 11.497,-4.482 23.598,-7.481c11.406,-2.827 19.806,-9.251 30.633,-12.597c9.332,-2.883 20.439,-10.429 28.391,-12.831c15.499,-4.682 20.504,2.853 9.142,12.831c-12.237,10.748 -42.405,24.527 -68.166,34.632c-5.14,2.017 -32.397,21.133 -30.77,22.397c0.398,0.31 26.371,-19.102 30.77,-21.074c17.568,-7.873 61.05,-30.318 82.581,-38.428c7.539,-2.839 11.344,1.804 11.673,2.473c2.148,4.367 -3.028,12.013 -8.814,12.597c-15.908,1.607 -85.708,41.971 -103.264,54.472c-7.708,5.488 32.216,-21.54 34.633,-22.641c11.721,-5.34 48.817,-22.132 55.965,-21.897c10.505,0.344 6.944,7.235 0,12.101c-3.08,2.159 -7.436,2.247 -10.483,4.044c-9.564,5.637 -18.496,11.79 -36.092,21.276c-19.965,10.762 -41.408,23.333 -49.797,28.576c-4.352,2.72 8.322,-3.355 10.596,-3.355c10.755,0 23.903,-1.057 43.635,-5.169c13.794,-2.875 24.751,-6.133 31.658,-5.384c5.705,0.619 3.321,2.876 0,8.994c-3.217,5.924 -17.789,9.87 -45.482,15.31c-12.383,2.433 -35.222,8.459 -44.948,10.795c-6.587,1.582 -13.82,5.652 -21.366,6.347c-7.627,0.703 -17.152,6.258 -24.629,7.604c-19.21,3.459 -36.344,3.226 -57.215,5.384c-24.728,2.558 -51.47,10.94 -60.613,15.833c-96.378,51.576 -200.466,100.505 -280.833,139.501c-32.93,15.979 -69.966,26.237 -102.186,42.56c-54.993,27.86 -94.076,70.927 -137.829,96.852c-71.658,42.459 -124.833,62.251 -136.656,68.55c-15.454,8.235 -52.243,25.483 -86.107,37.847c-33.877,12.37 -92.603,88.376 -111.557,145.883c-6.771,20.545 -37.412,40.503 -34.438,88.884c1.924,31.297 17.468,110.321 -23.65,137.717c-7.326,4.882 -7.8,23.294 -8.666,26.949c-10.834,60.139 -18.649,187.381 -13.986,234.659c-3.852,35.167 55.558,115.863 89.897,216.352c27.112,79.34 33.362,167.905 28.682,206.437c-28.287,232.902 -109.754,624.573 -110.567,646.441c-0.222,5.969 -26.977,95.749 -26.925,103.184c0.047,6.763 18.693,-79.767 18.913,-72.101c0.428,14.954 9.482,14.923 8.012,48.96c4.601,50.611 7.375,107.735 6.742,135.554c-1.547,68.012 7.704,143.528 -14.754,203.385c-38.543,102.728 -60.447,228.716 -76.035,300.534c-3.373,15.541 3.07,52.133 5.215,71.105c0.409,3.618 -22.647,-19.985 -20.301,-17.915c3.159,2.788 18.287,14.996 20.301,17.915c2.532,3.673 16.071,12.324 32.614,47.292c4.951,10.466 14.928,18.766 23.835,25.968c11.072,8.951 22.675,18.783 34.464,25.494c14.447,8.223 28.559,12.923 34.74,19.919c4.203,4.759 8.511,13.542 8.122,17.064c-0.389,3.531 -0.53,8.721 -4.595,13.09c-1.809,1.944 -10.667,2.454 -13.414,1.228c-0.832,-0.372 0.76,-1.733 0,-1.228c-0.904,0.6 0.665,5.365 0,6.201c-4.156,5.218 -6.805,6.388 -10.885,7.964c-3.669,1.417 -20.157,2.611 -18.374,2.115c1.206,-4.095 3.259,-13.32 1.834,-6.227c-0.265,1.316 -0.215,3.918 -3.535,6.227c-7.468,5.193 -30.235,5.26 -28.357,3.518c1.532,-1.42 9.633,-10.549 5.892,-6.596c-1.556,1.643 -2.595,10.096 -16.588,10.14c-3.628,0.011 -18.931,0.057 -17.595,-2.786c1.17,-2.493 2.644,-5.375 2.008,-4.276c-0.314,0.542 -4.134,10.132 -4.7,10.276c-4.029,1.031 -7.353,2.028 -9.152,2.504c-9.86,2.608 -20.898,2.969 -29.392,0c-14.398,-5.032 -13.732,-33.97 -21.788,-38.56c-8.473,-6.694 -15.978,-16.351 -23.187,-24.809c-8.266,-9.698 -15.1,-22.001 -23.306,-32.455c-9.883,-12.59 -21.763,-15.4 -29.517,-25.204c-9.848,-12.452 6.462,-46.151 8.704,-65.173c0.167,-1.415 17.331,13.972 17.338,12.647c0.009,-1.537 -17.393,-13.133 -17.338,-13.838c0.329,-4.197 -1.675,-28.972 0,-54.789c0.725,-11.184 7.465,-13.742 8.242,-23.469c5.711,-71.448 3.688,-199.133 3.688,-264.709c0,-10.832 -16.611,-107.519 -13.12,-200.894c1.64,-43.895 4.168,-115.302 12.085,-157.212c0.571,-7.002 1.565,-2.609 6.443,-10.743c5.811,0.278 30.281,45.442 26.781,37.869c-3.193,-6.909 -32.189,-49.675 -32.189,-54.191c0,-35.971 -16.683,-123.311 -13.12,-240.293c1.592,-52.278 -9.887,-114.963 -10.925,-166.836c-2.069,-103.385 1.33,-213.846 0,-251.001c-0.407,-11.357 -8.942,-0.314 -11.568,0c-2.157,0.257 -7.178,-10.203 -9.108,0c-4.111,21.734 2.966,62.563 0,116.478c-10.577,192.282 -25.479,521.344 -26.471,541.652c-0.132,2.688 -34.741,55.573 -34.869,58.838c-0.16,4.067 31.74,-55.582 32.022,-50.665c1.678,29.195 9.405,94.654 12.061,138.482c1.585,26.152 0,62.358 0,82.891c0,85.689 -14.817,348.022 -11.863,420.546c0.773,18.978 13.448,12.319 11.863,32.747c-1.417,18.269 -4.527,43.655 0,54.804c10.48,17.024 12.178,41.385 6.333,56.859c-3.801,10.063 -19.236,14.866 -30.45,25.204c-1.73,1.595 6.524,-26.98 4.965,-25.204c-1.679,1.913 -3.686,23.173 -5.163,25.204c-6.809,9.365 -19.166,31.553 -23.187,36.61c-8.995,11.314 -22.004,18.552 -26.606,26.666c-2.075,3.658 -7.545,33.975 -21.185,35.913c-9.406,1.337 -25.605,1.25 -32.079,-3.365c-1.647,-1.174 -9.239,-12.592 -5.264,-25.246c3.487,-11.1 18.561,-25.336 9.086,-16.904c-9.772,8.696 -12.284,30.203 -18.738,33.646c-5.091,2.715 -9.441,1.434 -13.062,0c-6.793,-2.69 -12.263,-6.215 -11.492,-12.727c0.903,-7.624 32.031,-28.589 31.231,-29.38c-0.751,-0.742 -26.571,20.967 -31.231,29.38c-3.173,5.729 3.095,-1.06 0,0c-2.81,0.963 -3.881,7.286 -7.69,8.451c-7.957,2.433 -18.969,-1.263 -20.367,-8.451c-2.746,-14.128 46.122,-31.55 18.515,-20.919c-11.951,10.329 -9.297,4.882 -13.301,9.602c-2.929,3.453 -7.524,6.245 -10.907,7.93c-2.348,1.169 -4.112,1.805 -4.332,1.759c-1.915,-0.404 -9.507,2.655 -10.26,-6.201c-1.548,-18.188 36.514,-34.024 34.479,-34.309c-2.679,-0.374 -28.372,18.344 -34.479,24.809c-3.797,4.02 -0.994,8.562 -12.948,6.012c-6.462,-1.379 -9.378,-10.428 -7.216,-14.178c5.536,-9.608 27.823,-18.591 34.48,-27.635c4.788,-6.505 23.027,-9.822 34.026,-21.463c22.881,-24.215 58.375,-59.802 66.561,-87.868c1.171,-4.012 5.969,-3.485 7.317,-3.7c17.583,-2.809 -4.291,2.589 -10.372,-8.41c-7.608,-13.761 6.73,-39.447 8.043,-46.379c2.196,-11.597 -4.054,-34.334 -8.043,-54.994c-7.905,-40.948 -23.679,-106.43 -44.43,-161.924c-16.291,-43.565 -25.737,-79.949 -32.939,-123.571c-5.95,-36.041 -8.197,-103.856 -4.927,-186.205c1.599,-40.281 7.824,-142.441 6.274,-179.431c-0.742,-17.691 29.655,98.542 24.008,82.982c-2.934,-27.618 -25.349,-89.714 -26.557,-95.837c-52.325,-265.245 -113.971,-527.134 -107.977,-733.394c2.255,-77.615 18.012,-140.436 40.864,-191.448c22.684,-50.637 52.432,-89.546 63.388,-144.44c7.882,-39.493 -2.799,-175.925 -7.395,-212.644c-1.549,-12.38 4.363,-38.775 -7.565,-50.293c-22.518,-21.745 -38.487,-61.734 -29.927,-98.393c11.299,-48.382 23.555,-87.105 15.335,-123.574c-4.799,-21.289 -25.609,-41.14 -33.836,-63.466c-11.742,-31.865 -19.871,-41.457 -40.864,-55.711c-7.861,-5.338 -20.261,-13.269 -33.374,-16.491c-13.32,-3.273 -25.964,-10.624 -35.61,-15.696c-45.997,-24.184 -101.965,-31.274 -148.97,-58.721c-72.512,-42.34 -151.351,-111.22 -232.176,-149.647c-32.446,-15.426 -68.392,-28.198 -100.942,-42.56c-82.026,-36.191 -167.02,-96.78 -241.507,-126.417c-16.259,-6.469 -35.699,-16.985 -51.284,-23.038c-26.913,-10.453 -48.85,-9.783 -93.016,-11.263c-2.167,-0.072 -19.163,-4.181 -26.289,-9.873c-1.873,-1.495 -3.064,-3.1 -3.126,-4.769c-0.579,-15.552 -0.081,-30.813 0,-29.024c0.178,3.942 0.175,23.933 1.467,32.443c-10.495,-4.618 -29.492,-5.862 -43.583,-8.804c-24.196,-5.051 -37.903,-9.945 -51.942,-15.115c-6.825,-2.513 -25.015,-18.108 -5.92,-17.141c17.407,0.882 45.635,12.813 57.862,13.786c3.571,0.284 8.025,-2.252 12.297,-1.558c9.059,1.472 17.112,6.305 12.86,4.913c-1.617,-0.53 -7.748,-4.26 -15.237,-8.524c-10.407,-5.924 -22.423,-17.093 -34.356,-22.975c-3.644,-1.796 -14.136,-8.37 -23.615,-12.601c-7.134,-3.185 -13.71,-4.144 -16.276,-5.752c-3.827,-2.4 -12.778,-7.493 -12.426,-12.659c0.208,-3.062 3.215,-9.991 13.765,-5.939c21.995,8.447 88.199,48.541 93.611,51.309c2.822,1.443 -85.356,-52.747 -102.447,-54.702c-7.207,-0.824 -17.106,-9.652 -17.124,-13.659c-0.02,-4.469 5.046,-7.149 12.195,-8.094c1.255,-0.166 44.652,21.684 76.753,39.7c20.625,11.576 34.963,22.125 35.839,22.397c5.368,1.673 -12.383,-9.446 -35.839,-22.397c-31.309,-17.285 -71.93,-37.305 -69.032,-42.883c3.077,-5.922 7.785,-7.265 13.646,-4.58c4.705,2.155 11.018,6.544 13.798,7.702c20.966,8.736 53.953,18.297 70.999,25.207c2.665,1.08 5.239,-1.164 9.124,0c5.058,1.515 15.889,3.853 21.196,5.939c0.665,0.261 10.436,17.157 14.008,20.905c0.932,0.978 -2.216,-4.21 6.034,6.272c17.769,22.578 45.903,59.69 -17.761,-21.839c-0.602,-0.771 0.19,-2.329 0.161,-2.659c-0.263,-3.043 -27.109,-18.061 -27.776,-19.762c-0.771,-1.964 -1.999,-3.989 -3.774,-5.908c-8.574,-9.271 -19.429,-25.933 -5.466,-23.251c35.864,6.889 126.8,84.612 137.963,87.294c56.356,12.988 142.77,53.252 227.242,80.836c47.85,15.625 87.165,24.435 112.803,34.07c46.438,17.452 83.174,40.386 92.015,43.832c23.312,9.087 53.222,28.802 91.959,45.399c108.379,46.432 252.679,103.484 259.204,105.099c24.534,6.075 63.319,0.686 102.931,16.003c45.749,17.689 90.942,50.62 106.732,52.509c12.214,1.462 60.528,-5.26 75.671,-29.777c21.208,-34.336 19.115,-79.294 19.115,-99.889Z" style="fill:#97762f;fill-opacity:0.647059;stroke:#080700;stroke-width:8.33px;"/><path d="M1871.34,3207.06c0,0 5.34,217.844 18.426,229.122" style="fill:none;stroke:#000;stroke-width:8.33px;"/><path d="M2008.12,3753.72c1.39,-10.569 -0.582,-19.905 -4.662,-28.469" style="fill:none;stroke:#000;stroke-width:8.33px;"/><path d="M2102.23,3841.25c19.831,-15.664 14.202,-29.065 -2.531,-41.479" style="fill:none;stroke:#080700;stroke-width:8.33px;"/><path d="M2134.33,3836.67c18.283,-12.893 13.781,-18.066 3.92,-26.265c-2.977,-2.476 -13.71,-11.422 -17.737,-14.409" style="fill:none;stroke:#080700;stroke-width:8.33px;"/><path d="M2164.86,3830.58c7.367,-3.442 10.439,-19.093 1.661,-25.154c-1.86,-1.285 -6.328,-2.876 -10.78,-6.302c-3.146,-2.42 -6.194,-7.131 -7.861,-8.368" style="fill:none;stroke:#080700;stroke-width:8.33px;"/><path d="M2190.91,3825.5c7.367,-3.442 10.978,-18.533 2.2,-24.594c-1.861,-1.285 -5.836,-1.431 -10.289,-4.857c-3.146,-2.421 -15.703,-11.099 -17.37,-12.336" style="fill:none;stroke:#080700;stroke-width:8.33px;"/><path d="M1479.91,2913.6c-4.728,-10.529 -16.641,-30.434 -17.922,-38.634c-2.062,-13.206 -3.186,-33.526 3.323,-59.749c5.939,-23.924 17.897,-45.119 26.329,-76.141c61.893,-227.704 150.629,-528.79 152.674,-485.72c-3.639,112.924 61.585,425.408 65.437,451.305c3.152,21.181 -39.306,65.981 -56.83,110.556c-18.646,47.429 -62.847,182.767 -95.51,268.805c-10.229,26.943 -24.803,44.667 -30.065,58.979c-12.845,34.935 -33.533,58.203 -74.323,116.381c-14.186,20.233 -45.356,44.669 -57.105,71.838c-18.836,43.558 -36.988,85.354 -49.567,121.299c-3.806,10.877 -3.666,20.365 -5.859,32.545c-2.005,11.138 -2.845,34.235 -4.425,42.755c-2.972,16.022 -6.072,19.406 -11.773,37.257c-7.798,24.415 -5.209,45.301 -9.818,48.829c-8.957,6.854 -21.135,12.292 -39.301,13.262c-18.964,1.014 -44.162,-2.625 -64.913,-4.096c-2.648,-0.187 39.689,-8.951 36.963,-9.166c-6.295,-0.496 -44.301,11.61 -51.415,13.262c-19.865,4.615 -45.606,14.575 -65.431,12.957c-8.445,-0.69 -33.146,-2.498 -41.592,-11.71c4.457,-3.525 -1.506,1.079 11.589,-11.591c5.757,-5.571 -6.821,15.225 -25.736,15.838c-16.577,8.644 -28.022,3.099 -36.662,0c-4.116,-1.477 -12.462,-4.787 -14.723,-12.9c-2.157,-10.793 31.778,-28.533 51.385,-27.383c4.787,0.28 -41.273,1.854 -51.62,26.784c-0.441,1.403 -7.24,1.516 -9.392,-5.754c0.307,-12.026 2.341,-21.238 24.35,-25.636c-5.539,2.692 -22.892,-0.395 -24.053,20.597c-1.15,1.304 -2.826,0.6 -5.001,-0.964c-11.255,-8.093 0.777,-18.16 5.001,-19.633c8,-2.791 -10.721,4.527 -9.236,12.133c-1.947,-2.854 -6.843,0.971 -8.537,-2.974c-3.226,-7.512 3.161,-11.705 6.567,-13.754c5.46,-3.285 20.39,-5.985 54.799,-5.552c15.269,0.192 28.599,-4.282 42.858,-9.443c18.635,-6.745 37.002,-14.585 41.673,-18.254c19.018,-14.94 50.842,-18.245 73.982,-35.917c22.363,-17.079 56.782,-145.075 59.144,-157.548c2.196,-11.597 71.277,-232.962 120.743,-337.107c15.686,-33.025 26.973,-66.72 42.115,-91.076c5.024,-8.083 17.877,-39.227 23.955,-48.327c2.258,-3.38 20.635,45.574 17.922,33.647Z" style="fill:#b79c69;fill-opacity:0.921569;stroke:#080700;stroke-width:8.33px;"/><path d="M1892.76,3641.46c5.467,-0.328 11.373,-1.516 14.212,3.894" style="fill:none;stroke:#000;stroke-width:8.33px;"/><path d="M1418.23,3298.62c17.129,-40.794 37.391,-77.763 60.226,-111.588" style="fill:none;stroke:#000;stroke-width:8.33px;"/><path d="M1191.14,1222.7c11.448,-9.316 16.282,-26.563 16.909,-48.852" style="fill:none;stroke:#080700;stroke-width:8.33px;"/><path d="M2038.87,1605.41c11.226,10.339 33.427,22.996 48.927,23.286" style="fill:none;stroke:#080700;stroke-width:8.33px;"/><path d="M1952.75,1896.15c-4.214,17.383 -11.53,36.696 -7.113,43.765c9.705,15.53 27.196,-10.141 7.113,-9.107" style="fill:none;stroke:#080700;stroke-width:8.33px;"/><path d="M1756.24,2035.05c8.552,12.335 65.951,75.678 83.923,74.123" style="fill:none;stroke:#080700;stroke-width:8.33px;"/><path d="M2065.75,2107.01c17.645,-6.096 78.787,-68.897 83.64,-85.045" style="fill:none;stroke:#080700;stroke-width:8.33px;"/><path d="M1838.31,2183.58c11.511,14.434 81.884,83.998 97.121,80.495" style="fill:none;stroke:#080700;stroke-width:8.33px;"/><path d="M1973.07,2269.85c23.904,-7.085 76.91,-73.579 90.783,-86.26" style="fill:none;stroke:#080700;stroke-width:8.33px;"/><path d="M1846.1,1608.02c-13.102,7.062 -44.575,17.086 -54.577,29.418" style="fill:none;stroke:#080700;stroke-width:8.33px;"/><path d="M1955.03,1653.31c-0.837,-12.693 1.866,-43.909 -3.909,-59.257c-2.163,-5.748 -17.247,-4.963 -20.648,-4.168" style="fill:none;stroke:#080700;stroke-width:8.33px;"/><path d="M1954.62,1652c0.837,-12.694 -1.866,-43.91 3.909,-59.258c2.163,-5.748 17.248,-4.962 20.648,-4.168" style="fill:none;stroke:#080700;stroke-width:8.33px;"/><path d="M1954.36,1398.74c0,-13.535 0.628,-21.363 0,-43.652" style="fill:none;stroke:#080700;stroke-width:8.33px;"/><path d="M2724.05,1250.54c-13.633,-10.25 -37.343,-5.674 -54.141,-9.903" style="fill:none;stroke:#080700;stroke-width:8.33px;"/><path d="M811.409,763.939c0.984,17.508 14.165,11.737 28.158,31.97" style="fill:none;stroke:#080700;stroke-width:8.33px;"/><path d="M786.492,697.765c-0.984,17.507 17.863,39.6 -6.346,54.642" style="fill:none;stroke:#080700;stroke-width:8.33px;"/><path d="M665.852,631.333c4.108,5.825 10.155,2.701 16.507,0" style="fill:none;stroke:#080700;stroke-width:8.33px;"/><path d="M840.946,758.238c14.78,8.162 17.958,-0.914 34.426,7.65" style="fill:none;stroke:#080700;stroke-width:8.33px;"/><path d="M1432.63,1079.32c-29.855,-12.405 -135.313,-81.834 -151.63,-96.276" style="fill:none;stroke:#080700;stroke-width:8.33px;"/><path d="M2135.31,1136.88c-84.217,18.487 -69.247,7.177 -109.958,11.396c-19.878,2.06 -17.238,27.085 -36.294,31.115" style="fill:none;stroke:#080700;stroke-width:8.33px;"/><path d="M1772.55,1136.88c84.217,18.487 69.247,7.177 109.958,11.396c19.878,2.06 17.238,27.085 36.294,31.115" style="fill:none;stroke:#080700;stroke-width:8.33px;"/><path d="M2722.27,1226.84c-20.318,-18.678 -11.727,-23.827 -24.724,-45.614" style="fill:none;stroke:#080700;stroke-width:8.33px;"/><path d="M3087.43,1220.49c18.307,0 11.24,0.995 33.003,0" style="fill:none;stroke:#080700;stroke-width:8.33px;"/><path d="M3328.29,1193.32c7.314,6.033 -0.719,6.153 12.801,8.377" style="fill:none;stroke:#080700;stroke-width:8.33px;"/><path d="M3294.09,1193.38c5.009,7.24 2.726,4.729 9.029,13.052" style="fill:none;stroke:#080700;stroke-width:8.33px;"/><path d="M3373.89,1198.69c-8.424,21.869 -51.724,14.161 -90.564,19.209c-49.609,6.447 -38.706,38.884 -101.895,19.94" style="fill:none;stroke:#080700;stroke-width:8.33px;"/><path d="M3248.13,1280.87c24.247,-18.456 20.477,-25.282 23.258,-28.715" style="fill:none;stroke:#080700;stroke-width:8.33px;"/><path d="M2746.95,1160.86c-27.791,-8.329 -44.376,-6.307 -71.102,-13.573" style="fill:none;stroke:#080700;stroke-width:8.33px;"/><path d="M2200.54,1426.88c1.888,-15.226 -7.518,-57.558 0,-100.484c6.075,-34.685 17.459,-34.833 31.63,-61.409c14.122,-26.485 21.364,-57.718 23.898,-63.134" style="fill:none;stroke:#080700;stroke-width:8.33px;"/><path d="M2641.04,982.062c-43.138,25.419 -126.991,87.532 -158.678,96.963" style="fill:none;stroke:#080700;stroke-width:8.33px;"/><path d="M2848.28,826.076c-41.567,23.346 -81.552,23.176 -90.864,25.822" style="fill:none;stroke:#080700;stroke-width:8.33px;"/><path d="M3095.11,753.704c-41.566,23.346 -81.551,23.176 -90.863,25.823" style="fill:none;stroke:#080700;stroke-width:8.33px;"/><path d="M3246.63,717.057c-4.553,30.156 -7.134,36.661 -16.446,39.307" style="fill:none;stroke:#080700;stroke-width:8.33px;"/><path d="M3130.84,700.948c-9.222,14.925 -8.236,26.271 -6.376,35.58c1.48,7.407 2.557,14.164 6.376,15.797" style="fill:none;stroke:#080700;stroke-width:8.33px;"/><path d="M3221.65,636.849c5.212,10.236 28.108,-3.793 31.345,-6.46" style="fill:none;stroke:#080700;stroke-width:8.33px;"/><path d="M3251.74,649.352c-2.685,5.547 -9.199,7.628 -14.91,11.931c-10.01,7.542 -20.568,16.32 -25.301,22.509c-20.015,26.176 -28.387,52.818 -49.57,57.354" style="fill:none;stroke:#080700;stroke-width:8.33px;"/><path d="M2707.08,872.4c-23.863,6.782 -68.985,14.937 -90.863,25.823" style="fill:none;stroke:#080700;stroke-width:8.33px;"/><path d="M1894.18,989.345c8.435,23.957 31.255,70.295 32.778,88.06" style="fill:none;stroke:#080700;stroke-width:8.33px;"/><path d="M1957.76,622.836c1.536,23.201 16.855,41.073 39.737,71.297c29.063,38.388 69.297,77.268 76.134,84.742" style="fill:none;stroke:#080700;stroke-width:8.33px;"/><path d="M2082.67,821.623c-2.543,26.155 -30.487,34.602 -28.964,52.367" style="fill:none;stroke:#080700;stroke-width:8.33px;"/><path d="M1828.25,811.973c13.238,26.073 27.134,34.868 28.658,52.633" style="fill:none;stroke:#080700;stroke-width:8.33px;"/><path d="M1976.64,603.084c-10.665,7.93 -24.513,28.636 -39.211,54.388c-8.911,15.615 -16.111,35.298 -26.456,49.433c-26.766,36.572 -56.072,59.243 -63.926,62.592" style="fill:none;stroke:#080700;stroke-width:8.33px;"/><path d="M1950.51,987.343c-7.161,-2.553 -20.864,-4.846 -33.536,-11.953c-16.618,-9.32 -32.222,-24.937 -40.442,-29.17" style="fill:none;stroke:#080700;stroke-width:8.33px;"/><path d="M1976.17,987.762c7.161,-2.552 19.197,-7.515 31.869,-14.622c16.618,-9.32 35.795,-28.346 44.015,-32.579" style="fill:none;stroke:#080700;stroke-width:8.33px;"/><path d="M1821.64,771.208c-7.184,-9.862 -4.446,-1.766 -5.257,0c-1.799,3.921 -1.005,12.638 0,16.631" style="fill:none;stroke:#080700;stroke-width:8.33px;"/><path d="M1969.19,594.291c-18.634,10.329 -47.879,53.811 -57.646,64.789" style="fill:none;stroke:#080700;stroke-width:8.33px;"/><path d="M1960.69,578.073c-18.634,10.33 -33.676,6.265 -43.443,17.243" style="fill:none;stroke:#080700;stroke-width:8.33px;"/><path d="M1959.01,573.487c18.748,32.712 40.101,53.36 40.044,69.868" style="fill:none;stroke:#080700;stroke-width:8.33px;"/><path d="M2105.08,775.325c-0.742,-7.241 -2.369,-12.755 -10.395,-8.046" style="fill:none;stroke:#080700;stroke-width:8.33px;"/><path d="M2070.66,715.126c8.435,23.957 15.44,21.36 28.638,31.142" style="fill:none;stroke:#080700;stroke-width:8.33px;"/><path d="M2034.77,694.892c8.435,23.957 37.913,48.045 52.54,58.139" style="fill:none;stroke:#080700;stroke-width:8.33px;"/><path d="M2024.36,989.345c-8.435,23.957 -31.255,70.295 -32.778,88.06" style="fill:none;stroke:#080700;stroke-width:8.33px;"/><path d="M2387.36,988.545c-33.086,14.188 -70.065,28.83 -92.143,49.336" style="fill:none;stroke:#080700;stroke-width:8.33px;"/><path d="M1617.42,1042.6c-0.908,-3.105 -9.673,-10.541 -24.019,-23.239" style="fill:none;stroke:#080700;stroke-width:8.33px;"/><path d="M1159.76,856.787c-29.856,-12.405 -78.727,-16.474 -95.044,-30.917" style="fill:none;stroke:#080700;stroke-width:8.33px;"/><path d="M1321.52,911.672c-29.822,-13.182 -81.002,-31.231 -97.989,-28.361" style="fill:none;stroke:#080700;stroke-width:8.33px;"/><path d="M1269.5,1149.71c-15.165,1.946 -88.428,7.47 -108.125,9.812" style="fill:none;stroke:#080700;stroke-width:8.33px;"/><path d="M730.156,1269.39c-1.106,-2.933 -1.573,-8.361 -1.634,-15.377" style="fill:none;stroke:#080700;stroke-width:8.33px;"/><path d="M818.495,1220.7c-13.234,2.387 -10.06,0.474 -29.347,0" style="fill:none;stroke:#080700;stroke-width:8.33px;"/><path d="M534.129,1199.54c1.229,8.024 9.301,13.279 14.793,14.654c6.86,1.717 24.112,1.027 38.402,0.46c3.481,-0.137 7.039,-1.915 27.429,-0.46c8.058,0.575 22.627,5.93 32.201,11.427c3.42,1.964 11.319,8.893 22.446,12.887c20.544,7.376 40.625,3.601 55.929,0" style="fill:none;stroke:#080700;stroke-width:8.33px;"/><path d="M654.403,1280.53c-12.189,-8.236 -15.117,-20.063 -17.62,-42.209" style="fill:none;stroke:#080700;stroke-width:8.33px;"/><path d="M564.56,1201.99c11.564,-1.816 13.776,-5.332 14.975,-12.1" style="fill:none;stroke:#080700;stroke-width:8.33px;"/><path d="M1168.7,1257.01c11.141,-9.712 44.828,-15.836 65.896,-11.824" style="fill:#cfbc98;stroke:#080700;stroke-width:8.33px;"/><path d="M2071.44,3814.16l29.668,0.275" style="fill:none;stroke:#000;stroke-width:8.33px;"/><path d="M1808.4,3813.93l29.668,0.275" style="fill:none;stroke:#000;stroke-width:8.33px;"/><path d="M1853.3,3822.27l0.282,-30.888" style="fill:none;stroke:#000;stroke-width:8.33px;"/><path d="M2056.79,3823.26c-1.409,-9.19 0.004,-20.928 1.132,-32.252" style="fill:none;stroke:#000;stroke-width:8.33px;"/><path d="M2031.44,3016.97c6.287,16.988 5.963,37.82 4.909,56.392" style="fill:none;stroke:#000;stroke-width:8.33px;"/><path d="M1878.37,3017.38c-8.55,24.909 -7.071,55.869 -4.611,83.509" style="fill:none;stroke:#000;stroke-width:8.33px;"/><path d="M2110.42,2945.63c0,0 13.809,-20.932 18.296,-32.627c4.702,-12.258 9.92,-40.925 9.92,-40.925" style="fill:none;stroke:#000;stroke-width:8.33px;"/><path d="M1806.02,2946.4c0,0 -13.809,-20.932 -18.295,-32.627c-4.703,-12.258 -9.92,-40.925 -9.92,-40.925" style="fill:none;stroke:#000;stroke-width:8.33px;"/><path d="M2116.21,2802.9c0,0 12.748,-8.745 18.074,-14.815c5.582,-6.362 15.417,-23.359 15.417,-23.359" style="fill:none;stroke:#000;stroke-width:8.33px;"/><path d="M1789.38,2800.01c0,0 -12.748,-8.744 -18.074,-14.812c-5.582,-6.361 -15.418,-23.354 -15.418,-23.354" style="fill:none;stroke:#000;stroke-width:8.33px;"/><path d="M2013.05,2854.88c0,0 -0.891,43.631 7.265,60.055c8.157,16.423 41.675,38.486 41.675,38.486" style="fill:none;stroke:#000;stroke-width:8.33px;"/><path d="M1893.13,2850.36c0,0 6.061,43.182 -0.085,60.529c-6.145,17.347 -36.789,43.551 -36.789,43.551" style="fill:none;stroke:#000;stroke-width:8.33px;"/><path d="M1037.88,3610.37c0,0 18.238,4.096 24.15,0" style="fill:none;stroke:#000;stroke-width:8.33px;"/><path d="M1310.12,3565.04c0,0 17.829,-13.403 20.559,-20.985" style="fill:none;stroke:#000;stroke-width:8.33px;"/><path d="M1232.85,3522.41c0,0 15.714,-16.016 17.33,-23.936" style="fill:none;stroke:#000;stroke-width:8.33px;"/><path d="M1255.72,3520.35c0,0 4.418,-22.428 9.938,-28.133" style="fill:none;stroke:#000;stroke-width:8.33px;"/><path d="M1495.24,3108.61c23.068,-57.111 49.08,-108.386 77.376,-155.13" style="fill:none;stroke:#000;stroke-width:8.33px;"/><path d="M1457.07,2890.47c0.356,16.662 6.527,28.495 13.979,34.274" style="fill:none;stroke:#000;stroke-width:8.33px;"/><path d="M1526.84,2924.34c24.692,0.896 42.827,-8.943 52.132,-21.606" style="fill:none;stroke:#000;stroke-width:8.33px;"/><path d="M2427.8,2911.39c4.727,-10.529 16.641,-30.434 17.921,-38.634c2.062,-13.206 3.187,-33.526 -3.322,-59.749c-5.939,-23.924 -17.897,-45.12 -26.329,-76.141c-61.893,-227.704 -139.281,-552.918 -142.865,-535.533c-8.989,129.661 -80.56,500.87 -75.798,510.248c21.934,43.195 39.858,56.851 57.382,101.426c18.645,47.429 62.847,182.767 95.51,268.805c10.229,26.943 24.803,44.667 30.065,58.979c12.844,34.935 33.533,58.203 74.323,116.381c14.186,20.233 45.356,44.669 57.104,71.838c18.836,43.558 36.988,85.354 49.567,121.299c3.806,10.877 3.667,20.365 5.86,32.545c2.005,11.138 2.844,34.235 4.425,42.755c2.971,16.022 6.071,19.406 11.773,37.257c7.797,24.415 5.208,45.301 9.818,48.829c8.956,6.854 21.135,12.291 39.301,13.262c18.963,1.014 44.161,-2.625 64.912,-4.096c2.649,-0.187 -39.688,-8.951 -36.962,-9.166c6.294,-0.496 44.301,11.61 51.414,13.262c19.865,4.615 45.606,14.575 65.432,12.957c8.445,-0.69 33.146,-2.498 41.592,-11.71c-4.457,-3.525 1.506,1.079 -11.589,-11.591c-5.758,-5.571 6.821,15.225 25.735,15.838c16.577,8.644 32.453,7.667 41.093,4.568c4.115,-1.477 8.031,-9.355 10.293,-17.468c2.157,-10.793 -31.778,-28.533 -51.386,-27.383c-4.786,0.28 41.274,1.854 51.621,26.784c0.441,1.403 7.24,1.516 9.392,-5.754c-0.307,-12.026 -2.342,-21.238 -24.35,-25.636c5.538,2.692 22.892,-0.395 24.052,20.597c1.151,1.304 2.827,0.6 5.001,-0.964c11.255,-8.093 -0.777,-18.16 -5.001,-19.633c-8,-2.791 10.721,4.527 9.236,12.133c1.948,-2.854 6.843,0.971 8.537,-2.974c3.226,-7.512 -3.16,-11.705 -6.566,-13.754c-5.461,-3.285 -20.391,-5.985 -54.8,-5.552c-15.269,0.192 -28.599,-4.282 -42.857,-9.443c-18.635,-6.745 -37.003,-14.585 -41.673,-18.254c-19.018,-14.94 -50.843,-18.245 -73.983,-35.917c-22.362,-17.079 -56.782,-145.075 -59.143,-157.548c-2.196,-11.597 -71.278,-232.962 -120.744,-337.107c-15.685,-33.025 -26.973,-66.72 -42.114,-91.076c-5.025,-8.083 -17.877,-39.227 -23.956,-48.327c-2.257,-3.38 -20.634,45.574 -17.921,33.647Z" style="fill:#b79c69;fill-opacity:0.976471;stroke:#080700;stroke-width:8.33px;"/><path d="M2489.48,3296.42c-17.13,-40.794 -37.392,-77.763 -60.227,-111.588" style="fill:none;stroke:#000;stroke-width:8.33px;"/><path d="M2869.83,3608.16c0,0 -18.239,4.096 -24.15,0" style="fill:none;stroke:#000;stroke-width:8.33px;"/><path d="M2597.59,3562.83c0,0 -17.828,-13.403 -20.558,-20.985" style="fill:none;stroke:#000;stroke-width:8.33px;"/><path d="M2674.86,3520.2c0,0 -15.714,-16.016 -17.33,-23.936" style="fill:none;stroke:#000;stroke-width:8.33px;"/><path d="M2651.99,3518.14c0,0 -4.419,-22.428 -9.938,-28.133" style="fill:none;stroke:#000;stroke-width:8.33px;"/><path d="M2412.47,3106.4c-23.069,-57.111 -49.08,-108.386 -77.377,-155.13" style="fill:none;stroke:#000;stroke-width:8.33px;"/><path d="M2450.64,2888.26c-0.357,16.662 -6.527,28.495 -13.979,34.273" style="fill:none;stroke:#000;stroke-width:8.33px;"/><path d="M2380.86,2922.13c-24.691,0.896 -42.827,-8.943 -52.132,-21.606" style="fill:none;stroke:#000;stroke-width:8.33px;"/></svg>