<?xml version="1.0" encoding="UTF-8" standalone="no"?><!DOCTYPE svg PUBLIC "-//W3C//DTD SVG 1.1//EN" "http://www.w3.org/Graphics/SVG/1.1/DTD/svg11.dtd"><svg width="100%" height="100%" viewBox="0 0 2605 2955" version="1.1" xmlns="http://www.w3.org/2000/svg" xmlns:xlink="http://www.w3.org/1999/xlink" xml:space="preserve" xmlns:serif="http://www.serif.com/" style="fill-rule:evenodd;clip-rule:evenodd;"><rect id="Rectangle-9" x="551.782" y="1961.4" width="1758.29" height="53.623" style="fill:#ff9700;stroke:#000;stroke-width:8.33px;"/><rect id="Rectangle-91" serif:id="Rectangle-9" x="551.782" y="1882.24" width="1749.96" height="53.623" style="fill:#ff9700;stroke:#000;stroke-width:8.33px;"/><rect id="Rectangle-16" x="2005.95" y="1882.24" width="304.167" height="53.623" style="fill:#2900f5;stroke:#000;stroke-width:8.33px;"/><rect id="Rectangle-92" serif:id="Rectangle-9" x="551.782" y="1798.9" width="1758.33" height="53.623" style="fill:#ff9700;stroke:#000;stroke-width:8.33px;"/><rect id="Rectangle-161" serif:id="Rectangle-16" x="1605.95" y="1798.9" width="400" height="53.623" style="fill:#2900f5;stroke:#000;stroke-width:8.33px;"/><rect id="Rectangle-93" serif:id="Rectangle-9" x="551.782" y="1719.74" width="1758.33" height="53.623" style="fill:#ff9700;stroke:#000;stroke-width:8.33px;"/><rect id="Rectangle-162" serif:id="Rectangle-16" x="1268.45" y="1719.74" width="336.523" height="53.623" style="fill:#2900f5;stroke:#000;stroke-width:8.33px;"/><rect id="Rectangle-94" serif:id="Rectangle-9" x="551.782" y="1640.57" width="1758.33" height="53.623" style="fill:#ff9700;stroke:#000;stroke-width:8.33px;"/><rect id="Rectangle-163" serif:id="Rectangle-16" x="885.116" y="1640.57" width="379.167" height="53.623" style="fill:#2900f5;stroke:#000;stroke-width:8.33px;"/><rect id="Rectangle-95" serif:id="Rectangle-9" x="551.782" y="1557.24" width="1758.33" height="53.623" style="fill:#ff9700;stroke:#000;stroke-width:8.33px;"/><rect id="Rectangle-164" serif:id="Rectangle-16" x="551.782" y="1557.24" width="337.5" height="53.623" style="fill:#2900f5;stroke:#000;stroke-width:8.33px;"/><rect id="Rectangle-96" serif:id="Rectangle-9" x="551.782" y="1478.07" width="1749.96" height="53.623" style="fill:#a0a0a0;stroke:#979797;stroke-width:8.33px;"/><rect id="Rectangle-165" serif:id="Rectangle-16" x="551.782" y="1478.07" width="1758.33" height="53.623" style="fill:#2900f5;stroke:#000;stroke-width:8.33px;"/><path id="Line" d="M553.894,2246.82l1765.57,0" style="fill:none;stroke:#000;stroke-width:12.5px;stroke-linecap:square;"/><path id="Line-2" d="M2301.78,1457.24l-575,-300" style="fill:none;stroke:#a0a0a0;stroke-width:8.33px;stroke-linecap:square;stroke-dasharray:8.33,16.67,8.33,16.67;"/><g id="Rectangle-2---Rectangle-4" serif:id="Rectangle-2-+-Rectangle-4"><path id="Rectangle-2" d="M2251.78,234.318c0,-18.397 -14.936,-33.333 -33.333,-33.333l-1687.5,0c-18.397,0 -33.333,14.936 -33.333,33.333l0,16.667c0,18.397 14.936,33.333 33.333,33.333l1687.5,0c18.397,0 33.333,-14.936 33.333,-33.333l0,-16.667Z" style="fill:#b14242;stroke:#000;stroke-width:8.33px;"/><rect id="Rectangle-4" x="1668.45" y="200.985" width="45.833" height="83.333" style="fill:#f5d400;stroke:#000;stroke-width:8.33px;"/></g><g id="Group"><path id="Rectangle-2-Copy" d="M2251.78,449.301c0,-18.397 -14.936,-33.333 -33.333,-33.333l-1687.5,0c-18.397,0 -33.333,14.936 -33.333,33.333l0,18.75c0,18.397 14.936,33.333 33.333,33.333l1687.5,0c18.397,0 33.333,-14.936 33.333,-33.333l0,-18.75Z" style="fill:#ff9700;stroke:#000;stroke-width:8.33px;"/><rect id="Rectangle-4-Copy" x="1597.62" y="415.968" width="150" height="83.333" style="fill:#2900f5;stroke:#000;stroke-width:8.33px;"/><rect id="Rectangle-4-Copy-2" x="1247.62" y="415.968" width="208.333" height="83.333" style="fill:#2900f5;stroke:#000;stroke-width:8.33px;"/><rect id="Rectangle-4-Copy-3" x="562.199" y="415.968" width="300" height="83.333" style="fill:#2900f5;stroke:#000;stroke-width:8.33px;"/><rect id="Rectangle-4-Copy-4" x="933.317" y="415.968" width="45.833" height="83.333" style="fill:#2900f5;stroke:#000;stroke-width:8.33px;"/><rect id="Rectangle-4-Copy-5" x="1039.28" y="415.968" width="45.833" height="83.333" style="fill:#2900f5;stroke:#000;stroke-width:8.33px;"/><rect id="Rectangle-4-Copy-6" x="1830.95" y="415.968" width="45.833" height="83.333" style="fill:#2900f5;stroke:#000;stroke-width:8.33px;"/><path id="Rectangle-4-Copy-7" d="M2240.81,423.746c-5.961,-4.72 -14.456,-7.653 -16.087,-7.672c-100.709,-1.139 -302.103,0 -302.103,0l0,82.542c0,0 253.395,0.642 300,0c2.13,-0.029 9.654,-1.305 14.567,-4.216c2.597,-1.539 10.24,-7.667 13.578,-14.938c3.769,-8.212 3.096,-17.788 3.096,-22.117c0,-1.883 0.1,-12.259 -3.096,-19.67c-1.595,-3.697 -4.522,-9.627 -9.955,-13.929Z" style="fill:#2900f5;stroke:#000;stroke-width:8.33px;"/></g><g id="Group---Rectangle-4-Copy-9" serif:id="Group-+-Rectangle-4-Copy-9"><g id="Group1" serif:id="Group"><path id="Rectangle-2-Copy-2" d="M2251.26,598.901c0,-18.397 -14.936,-33.333 -33.333,-33.333l-1687.5,0c-18.397,0 -33.333,14.936 -33.333,33.333l0,18.75c0,18.398 14.936,33.334 33.333,33.334l1687.5,0c18.397,0 33.333,-14.936 33.333,-33.334l0,-18.75Z" style="fill:#2900f5;stroke:#000;stroke-width:8.33px;"/><rect id="Rectangle-4-Copy-8" x="1622.1" y="565.568" width="125" height="83.333" style="fill:#ff9700;stroke:#000;stroke-width:8.33px;"/><rect id="Rectangle-4-Copy-10" x="561.678" y="565.568" width="104.167" height="83.333" style="fill:#ff9700;stroke:#000;stroke-width:8.33px;"/><rect id="Rectangle-4-Copy-11" x="872.095" y="565.568" width="41.667" height="83.333" style="fill:#ff9700;stroke:#000;stroke-width:8.33px;"/><rect id="Rectangle-4-Copy-12" x="1038.76" y="565.568" width="45.833" height="83.333" style="fill:#ff9700;stroke:#000;stroke-width:8.33px;"/><rect id="Rectangle-4-Copy-13" x="1772.1" y="565.568" width="104.167" height="83.333" style="fill:#ff9700;stroke:#000;stroke-width:8.33px;"/><path id="Rectangle-4-Copy-14" d="M2223.26,648.616c3.643,-0.24 18.746,-4.667 25,-17.617c3.126,-6.475 6.731,-30.816 0,-46.354c-5.769,-13.316 -21.831,-18.571 -21.831,-18.571l-75.171,0l0,82.542c0,0 47.879,1.59 72.002,0Z" style="fill:#ff9700;stroke:#000;stroke-width:8.33px;"/></g><rect id="Rectangle-4-Copy-9" x="1247.1" y="565.568" width="336.523" height="83.333" style="fill:#ff9700;stroke:#000;stroke-width:8.33px;"/></g><g id="Rectangle-2-Copy---Rectangle-4-Copy" serif:id="Rectangle-2-Copy-+-Rectangle-4-Copy"><path id="Rectangle-2-Copy1" serif:id="Rectangle-2-Copy" d="M2259.07,959.718c0,-18.398 -14.936,-33.334 -33.333,-33.334l-1687.5,0c-18.398,0 -33.334,14.936 -33.334,33.334l0,18.75c0,18.397 14.936,33.333 33.334,33.333l1687.5,0c18.397,0 33.333,-14.936 33.333,-33.333l0,-18.75Z" style="fill:#ff9700;stroke:#000;stroke-width:8.33px;"/><rect id="Rectangle-4-Copy1" serif:id="Rectangle-4-Copy" x="1604.91" y="926.384" width="150" height="83.333" style="fill:#2900f5;stroke:#000;stroke-width:8.33px;"/></g><path id="Line-Copy" d="M1668.45,186.401l0,500" style="fill:none;stroke:#000;stroke-width:8.33px;stroke-linecap:square;"/><path id="Line-2-Copy" d="M1714.28,186.401l0,500" style="fill:none;stroke:#000;stroke-width:8.33px;stroke-linecap:square;"/><g id="Rectangle-2-Copy-3---Rectangle-4-Copy-15" serif:id="Rectangle-2-Copy-3-+-Rectangle-4-Copy-15"><path id="Rectangle-2-Copy-3" d="M2258.03,1109.32c0,-18.397 -14.936,-33.333 -33.333,-33.333l-1687.5,0c-18.397,0 -33.333,14.936 -33.333,33.333l0,18.75c0,18.397 14.936,33.333 33.333,33.333l1687.5,0c18.397,0 33.333,-14.936 33.333,-33.333l0,-18.75Z" style="fill:#2900f5;stroke:#000;stroke-width:8.33px;"/><rect id="Rectangle-4-Copy-15" x="1605.43" y="1078.07" width="125" height="83.333" style="fill:#ff9700;stroke:#000;stroke-width:8.33px;"/></g><path id="Line1" serif:id="Line" d="M572.616,1461.4l1037.5,-295.833" style="fill:none;stroke:#a0a0a0;stroke-width:8.33px;stroke-linecap:square;stroke-dasharray:8.33,16.67,8.33,16.67;"/><path id="Line-2-Copy-2" d="M2314.28,2232.24l-1045.83,-183.334" style="fill:none;stroke:#a0a0a0;stroke-width:8.33px;stroke-linecap:square;stroke-dasharray:8.33,16.67,8.33,16.67;"/><path id="Line-Copy-2" d="M561.092,2232.24l325,-183.334" style="fill:none;stroke:#a0a0a0;stroke-width:8.33px;stroke-linecap:square;stroke-dasharray:8.33,16.67,8.33,16.67;"/><path id="Line2" serif:id="Line" d="M885.116,1438.8l0,603.546" style="fill:none;stroke:#000;stroke-opacity:0.568627;stroke-width:8.33px;stroke-linecap:square;"/><path id="Line-21" serif:id="Line-2" d="M1264.28,1438.8l0,603.546" style="fill:none;stroke:#000;stroke-opacity:0.568627;stroke-width:8.33px;stroke-linecap:square;"/><g id="Group2" serif:id="Group"><rect id="Rectangle-20" x="568.449" y="2399.32" width="166.667" height="70.417" style="fill:#b14242;stroke:#000;stroke-width:8.33px;"/><rect id="Rectangle-21" x="776.782" y="2399.32" width="62.5" height="70.417" style="fill:#b14242;stroke:#000;stroke-width:8.33px;"/><path id="Rectangle-22" d="M901.782,2399.32l0,70.417l100,0c0,0 40.658,-23.684 40.658,-35.209c0,-11.947 -40.658,-35.208 -40.658,-35.208l-100,0Z" style="fill:#b14242;stroke:#000;stroke-width:8.33px;"/><path id="Path-9" d="M732.94,2402.78l22.246,-42.628l24.166,41.709" style="fill:none;stroke:#000;stroke-width:4.17px;"/><path id="Path-10" d="M837.937,2402.78l31.514,-42.628l34.235,41.709" style="fill:none;stroke:#000;stroke-width:4.17px;"/></g><g id="Group3" serif:id="Group"><rect id="Rectangle-25" x="1514.28" y="2402.24" width="54.167" height="75.833" style="fill:#b14242;stroke:#000;stroke-width:8.33px;"/><rect id="Rectangle-23" x="1618.45" y="2402.24" width="62.5" height="75.833" style="fill:#b14242;stroke:#000;stroke-width:8.33px;"/><path id="Rectangle-24" d="M1743.45,2402.24l0,75.833l100,0c0,0 40.657,-25.506 40.657,-37.917c0,-12.866 -40.657,-37.916 -40.657,-37.916l-100,0Z" style="fill:#b14242;stroke:#000;stroke-width:8.33px;"/><path id="Path-11" d="M1566.61,2405.97l25.952,-45.907l28.194,44.918" style="fill:none;stroke:#000;stroke-width:4.17px;"/><rect id="Rectangle-26" x="1339.28" y="2402.24" width="129.167" height="75.833" style="fill:#b14242;stroke:#000;stroke-width:8.33px;"/><path id="Path-13" d="M1466.44,2405.97l24.099,-45.907l26.18,44.918" style="fill:none;stroke:#000;stroke-width:4.17px;"/><path id="Path-12" d="M1679.6,2405.97l31.515,-45.907l34.235,44.918" style="fill:none;stroke:#000;stroke-width:4.17px;"/></g><g id="Group4" serif:id="Group"><rect id="Rectangle-251" serif:id="Rectangle-25" x="1193.45" y="2514.18" width="75" height="72.222" style="fill:#f5d300;stroke:#000;stroke-width:8.33px;"/><rect id="Rectangle-231" serif:id="Rectangle-23" x="1080.95" y="2514.18" width="62.5" height="72.222" style="fill:#f5d300;stroke:#000;stroke-width:8.33px;"/><path id="Rectangle-241" serif:id="Rectangle-24" d="M1064.28,2586.4l0,-72.222l-52.941,0c0,0 -21.525,24.291 -21.525,36.111c0,12.254 21.525,36.111 21.525,36.111l52.941,0Z" style="fill:#f5d300;stroke:#000;stroke-width:8.33px;"/><rect id="Rectangle-261" serif:id="Rectangle-26" x="1293.45" y="2514.18" width="62.5" height="72.222" style="fill:#f5d300;stroke:#000;stroke-width:8.33px;"/><g><path id="Path-111" serif:id="Path-11" d="M1141.15,2517.05l25.952,-31.988l28.194,31.298" style="fill:none;stroke:#000;stroke-width:4.17px;"/><path id="Path-131" serif:id="Path-13" d="M1265.35,2522.61l14.83,-31.988l16.111,31.299" style="fill:none;stroke:#000;stroke-width:4.17px;"/><path id="Path-121" serif:id="Path-12" d="M1060.91,2522.61l11.123,-31.988l12.083,31.299" style="fill:none;stroke:#000;stroke-width:4.17px;"/></g></g><g id="Group5" serif:id="Group"><rect id="Rectangle-27" x="1985.12" y="2514.18" width="62.5" height="72.222" style="fill:#f5d300;stroke:#000;stroke-width:8.33px;"/><path id="Rectangle-28" d="M1968.45,2586.4l0,-72.222l-52.941,0c0,0 -21.525,24.291 -21.525,36.111c0,12.254 21.525,36.111 21.525,36.111l52.941,0Z" style="fill:#f5d300;stroke:#000;stroke-width:8.33px;"/><rect id="Rectangle-29" x="2135.12" y="2514.18" width="125" height="72.222" style="fill:#f5d300;stroke:#000;stroke-width:8.33px;"/><g id="Group-2"><path id="Path-112" serif:id="Path-11" d="M2046.6,2517.05l43.92,-31.988l47.713,31.298" style="fill:none;stroke:#000;stroke-width:4.17px;"/><path id="Path-122" serif:id="Path-12" d="M1965.08,2522.61l11.122,-31.988l12.084,31.299" style="fill:none;stroke:#000;stroke-width:4.17px;"/></g></g><g id="Group6" serif:id="Group"><path id="Line3" serif:id="Line" d="M549.795,2246.11l0,33.026" style="fill:none;stroke:#000;stroke-width:4.17px;stroke-linecap:square;"/><path id="Line-3" d="M1517.37,2246.11l0,33.026" style="fill:none;stroke:#000;stroke-width:4.17px;stroke-linecap:square;"/><path id="Line-5" d="M711.057,2246.11l0,33.026" style="fill:none;stroke:#000;stroke-width:4.17px;stroke-linecap:square;"/><path id="Line-4" d="M2001.16,2246.11l0,33.026" style="fill:none;stroke:#000;stroke-width:4.17px;stroke-linecap:square;"/><path id="Line-9" d="M872.32,2246.11l0,33.026" style="fill:none;stroke:#000;stroke-width:4.17px;stroke-linecap:square;"/><path id="Line-6" d="M1678.63,2246.11l0,33.026" style="fill:none;stroke:#000;stroke-width:4.17px;stroke-linecap:square;"/><path id="Line-7" d="M1033.58,2246.11l0,33.026" style="fill:none;stroke:#000;stroke-width:4.17px;stroke-linecap:square;"/><path id="Line-8" d="M2162.42,2246.11l0,33.026" style="fill:none;stroke:#000;stroke-width:4.17px;stroke-linecap:square;"/><path id="Line-13" d="M1194.84,2246.11l0,33.026" style="fill:none;stroke:#000;stroke-width:4.17px;stroke-linecap:square;"/><path id="Line-10" d="M1839.89,2246.11l0,33.026" style="fill:none;stroke:#000;stroke-width:4.17px;stroke-linecap:square;"/><path id="Line-11" d="M1356.11,2246.11l0,33.026" style="fill:none;stroke:#000;stroke-width:4.17px;stroke-linecap:square;"/><path id="Line-12" d="M2323.68,2246.11l0,33.026" style="fill:none;stroke:#000;stroke-width:4.17px;stroke-linecap:square;"/></g><g id="Phenotype"><text x="2210.12px" y="373.901px" style="font-family:'Helvetica';font-size:83.333px;">Phenotype</text></g><g id="Test-Gene-Causality"><text x="1055.95px" y="2936.4px" style="font-family:'Helvetica';font-size:83.333px;">Test Gene Causality</text></g><g id="_--copy-2" serif:id="+-copy-2"><text x="2377.27px" y="498.901px" style="font-family:'Helvetica';font-size:112.5px;fill:#2900f5;stroke:#2900f5;stroke-width:4.17px;">+</text></g><rect id="Rectangle-32-Copy-2" x="2380.95" y="598.901" width="62.5" height="25" style="fill:#ff9700;stroke:#000;stroke-width:8.33px;"/><g id="_--copy-21" serif:id="+-copy-2"><text x="2377.27px" y="1007.24px" style="font-family:'Helvetica';font-size:112.5px;fill:#2900f5;stroke:#2900f5;stroke-width:4.17px;">+</text></g><rect id="Rectangle-32-Copy-21" serif:id="Rectangle-32-Copy-2" x="2380.95" y="1107.24" width="62.5" height="25" style="fill:#ff9700;stroke:#000;stroke-width:8.33px;"/><g id="_--copy-22" serif:id="+-copy-2"><text x="2377.27px" y="1528.07px" style="font-family:'Helvetica';font-size:112.5px;fill:#2900f5;stroke:#2900f5;stroke-width:4.17px;">+</text></g><g id="_--copy-23" serif:id="+-copy-2"><text x="2377.27px" y="1694.74px" style="font-family:'Helvetica';font-size:112.5px;fill:#2900f5;stroke:#2900f5;stroke-width:4.17px;">+</text></g><rect id="Rectangle-32-Copy-22" serif:id="Rectangle-32-Copy-2" x="2380.95" y="1569.74" width="62.5" height="25" style="fill:#ff9700;stroke:#000;stroke-width:8.33px;"/><rect id="Rectangle-32-Copy-23" serif:id="Rectangle-32-Copy-2" x="2380.95" y="1732.24" width="62.5" height="25" style="fill:#ff9700;stroke:#000;stroke-width:8.33px;"/><rect id="Rectangle-32-Copy-24" serif:id="Rectangle-32-Copy-2" x="2380.95" y="1815.57" width="62.5" height="25" style="fill:#ff9700;stroke:#000;stroke-width:8.33px;"/><rect id="Rectangle-32-Copy-25" serif:id="Rectangle-32-Copy-2" x="2380.95" y="1898.9" width="62.5" height="25" style="fill:#ff9700;stroke:#000;stroke-width:8.33px;"/><rect id="Rectangle-32-Copy-26" serif:id="Rectangle-32-Copy-2" x="2380.95" y="1973.9" width="62.5" height="25" style="fill:#ff9700;stroke:#000;stroke-width:8.33px;"/><path id="Star-1" d="M964.282,2430.09l-7.125,11.844l3.408,-13.006l-14.325,5.141l12.347,-8.083l-14.822,-3.968l15.509,0.623l-8.383,-11.221l11.413,9.037l1.978,-13.222l1.978,13.222l11.414,-9.037l-8.383,11.221l15.508,-0.623l-14.821,3.968l12.346,8.083l-14.324,-5.141l3.408,13.006l-7.126,-11.844Z" style="stroke:#000;stroke-width:4.17px;"/><path id="Star-1-Copy" d="M805.949,2430.09l-7.126,11.844l3.408,-13.006l-14.324,5.141l12.346,-8.083l-14.821,-3.968l15.508,0.623l-8.383,-11.221l11.414,9.037l1.978,-13.222l1.978,13.222l11.413,-9.037l-8.382,11.221l15.508,-0.623l-14.821,3.968l12.346,8.083l-14.324,-5.141l3.407,13.006l-7.125,-11.844Z" style="stroke:#000;stroke-width:4.17px;"/><path id="Star-1-Copy-2" d="M805.949,2430.09l-7.126,11.844l3.408,-13.006l-14.324,5.141l12.346,-8.083l-14.821,-3.968l15.508,0.623l-8.383,-11.221l11.414,9.037l1.978,-13.222l1.978,13.222l11.413,-9.037l-8.382,11.221l15.508,-0.623l-14.821,3.968l12.346,8.083l-14.324,-5.141l3.407,13.006l-7.125,-11.844Z" style="stroke:#000;stroke-width:4.17px;"/><path id="Star-1-Copy-3" d="M605.949,2430.09l-7.126,11.844l3.408,-13.006l-14.324,5.141l12.346,-8.083l-14.821,-3.968l15.508,0.623l-8.383,-11.221l11.414,9.037l1.978,-13.222l1.978,13.222l11.413,-9.037l-8.382,11.221l15.508,-0.623l-14.821,3.968l12.346,8.083l-14.324,-5.141l3.407,13.006l-7.125,-11.844Z" style="stroke:#000;stroke-width:4.17px;"/><path id="Star-3" d="M2018.45,2550.92l-7.126,11.844l3.408,-13.006l-14.324,5.14l12.346,-8.082l-14.821,-3.969l15.508,0.623l-8.383,-11.221l11.414,9.038l1.978,-13.223l1.978,13.223l11.413,-9.038l-8.382,11.221l15.508,-0.623l-14.821,3.969l12.346,8.082l-14.324,-5.14l3.407,13.006l-7.125,-11.844Z" style="stroke:#000;stroke-width:4.17px;"/><path id="Star-3-Copy" d="M2168.45,2550.92l-7.126,11.844l3.408,-13.006l-14.324,5.14l12.346,-8.082l-14.821,-3.969l15.508,0.623l-8.383,-11.221l11.414,9.038l1.978,-13.223l1.978,13.223l11.413,-9.038l-8.382,11.221l15.508,-0.623l-14.821,3.969l12.346,8.082l-14.324,-5.14l3.407,13.006l-7.125,-11.844Z" style="stroke:#000;stroke-width:4.17px;"/><path id="Star-2" d="M1234.8,2546.76l-7.125,11.844l3.407,-13.006l-14.324,5.14l12.346,-8.082l-14.821,-3.969l15.508,0.624l-8.382,-11.221l11.413,9.037l1.978,-13.223l1.978,13.223l11.413,-9.037l-8.382,11.221l15.508,-0.624l-14.821,3.969l12.346,8.082l-14.324,-5.14l3.407,13.006l-7.125,-11.844Z" style="stroke:#000;stroke-width:4.17px;"/><path id="Star-2-Copy" d="M1105.63,2546.76l-7.125,11.844l3.408,-13.006l-14.325,5.14l12.347,-8.082l-14.821,-3.969l15.508,0.624l-8.383,-11.221l11.413,9.037l1.978,-13.223l1.978,13.223l11.414,-9.037l-8.383,11.221l15.508,-0.624l-14.821,3.969l12.347,8.082l-14.325,-5.14l3.408,13.006l-7.126,-11.844Z" style="stroke:#000;stroke-width:4.17px;"/><path id="Star-2-Copy-2" d="M1318.13,2546.76l-7.125,11.844l3.408,-13.006l-14.325,5.14l12.347,-8.082l-14.821,-3.969l15.508,0.624l-8.383,-11.221l11.413,9.037l1.978,-13.223l1.978,13.223l11.414,-9.037l-8.383,11.221l15.508,-0.624l-14.821,3.969l12.347,8.082l-14.325,-5.14l3.408,13.006l-7.126,-11.844Z" style="stroke:#000;stroke-width:4.17px;"/><path id="Line4" serif:id="Line" d="M758.032,2521.82l208.334,329.167" style="fill:none;stroke:#61635b;stroke-width:12.5px;stroke-linecap:square;"/><path id="Line-decoration-1" d="M966.366,2850.99l-13.504,-44.709l-21.125,13.37l34.629,31.339Z" style="fill:none;stroke:#61635b;stroke-width:12.5px;stroke-linecap:square;"/><path id="Line-31" serif:id="Line-3" d="M1299.7,2617.65l37.5,229.167" style="fill:none;stroke:#61635b;stroke-width:12.5px;stroke-linecap:square;"/><path id="Line-3-decoration-1" d="M1337.2,2846.82l5.069,-46.428l-24.672,4.037l19.603,42.391Z" style="fill:none;stroke:#61635b;stroke-width:12.5px;stroke-linecap:square;"/><path id="Line-41" serif:id="Line-4" d="M2037.2,2600.99l-187.5,258.333" style="fill:none;stroke:#61635b;stroke-width:12.5px;stroke-linecap:square;"/><path id="Line-4-decoration-1" d="M1849.7,2859.32l36.549,-29.076l-20.233,-14.685l-16.316,43.761Z" style="fill:none;stroke:#61635b;stroke-width:12.5px;stroke-linecap:square;"/><g id="gene-1"><text x="897.616px" y="2353.07px" style="font-family:'Helvetica';font-size:58.333px;">gene-1</text></g><g id="gene-2"><text x="1105.95px" y="2465.57px" style="font-family:'Helvetica';font-size:58.333px;">gene-2</text></g><g id="gene-3"><text x="1935.12px" y="2457.24px" style="font-family:'Helvetica';font-size:58.333px;">gene-3</text></g><g id="Hawaiian-NIL"><text x="-6.551px" y="998.901px" style="font-family:'Helvetica';font-size:83.333px;">Hawaiian NIL</text></g><g id="Hawaiian-NIL1" serif:id="Hawaiian-NIL"><text x="43.449px" y="1528.07px" style="font-family:'Helvetica';font-size:83.333px;">Hawaiian NIL</text></g><g id="QTL"><text x="1614.28px" y="61.401px" style="font-family:'Helvetica';font-size:83.333px;">QTL</text></g><g id="RIAIL-A"><text x="214.282px" y="490.568px" style="font-family:'Helvetica';font-size:83.333px;">RIAIL A</text></g><g id="Generate-NILs"><text x="1210.12px" y="853.068px" style="font-family:'Helvetica-Bold', 'Helvetica';font-weight:700;font-size:112.5px;">Generate NILs</text></g><g id="Speed-Congenics"><text x="1122.62px" y="1403.07px" style="font-family:'Helvetica-Bold', 'Helvetica';font-weight:700;font-size:112.5px;">Speed Congenics</text></g><g id="RIAIL-B"><text x="210.116px" y="640.568px" style="font-family:'Helvetica';font-size:83.333px;">RIAIL B</text></g><g id="NIL1"><text x="364.282px" y="1615.57px" style="font-family:'Helvetica';font-size:83.333px;">NIL1</text></g><g id="NIL2"><text x="364.282px" y="1694.74px" style="font-family:'Helvetica';font-size:83.333px;">NIL2</text></g><g id="NIL3"><text x="364.282px" y="1773.9px" style="font-family:'Helvetica';font-size:83.333px;">NIL3</text></g><g id="NIL4"><text x="364.282px" y="1853.07px" style="font-family:'Helvetica';font-size:83.333px;">NIL4</text></g><g id="NIL5"><text x="364.282px" y="1932.24px" style="font-family:'Helvetica';font-size:83.333px;">NIL5</text></g><g id="Bristol-NIL"><text x="101.782px" y="1148.9px" style="font-family:'Helvetica';font-size:83.333px;">Bristol NIL</text></g><g id="Bristol-NIL1" serif:id="Bristol-NIL"><text x="155.949px" y="2019.74px" style="font-family:'Helvetica';font-size:83.333px;">Bristol NIL</text></g><path id="Star-4" d="M1695.53,153.068l-22.598,16.707l2.238,-24.551l-30.417,-3.718l25.388,-13.907l-15.331,-21.343l29.421,7.209l11.299,-22.897l11.299,22.897l29.422,-7.209l-15.332,21.343l25.389,13.907l-30.418,3.718l2.238,24.551l-22.598,-16.707Z" style="fill:#bd00ff;stroke:#000;stroke-width:4.17px;"/></svg>